Coordinates
version=1
nRows=12
nColumns=24
inDegrees=yes

Units are S.I. units (second, meters, Newtons, ...)
Angles are in degrees.

endheader
time	pelvis_tilt	pelvis_list	pelvis_rotation	pelvis_tx	pelvis_ty	pelvis_tz	hip_flexion_r	hip_adduction_r	hip_rotation_r	knee_angle_r	ankle_angle_r	subtalar_angle_r	mtp_angle_r	hip_flexion_l	hip_adduction_l	hip_rotation_l	knee_angle_l	ankle_angle_l	subtalar_angle_l	mtp_angle_l	lumbar_extension	lumbar_bending	lumbar_rotation
      2.58000000	     68.67912912	      4.83820798	     -1.20861147	      0.55553266	      1.05833581	     -0.30535125	     -0.25998361	    -13.07556993	      0.83891803	    -63.08684704	    -18.25961281	     -3.21494102	      0.00000000	      1.74205182	     -5.68154183	      7.36841532	      1.94574018	    -20.46481738	     11.86571104	      0.00000000	      0.00000000	      0.00000000	      0.00000000
      2.59000000	     68.68219567	      4.83977272	     -1.20787942	      0.55553175	      1.05833925	     -0.30534657	     -0.26445663	    -13.07578948	      0.83835028	    -63.08395947	    -18.26053859	     -3.21484644	      0.00000000	      1.73960769	     -5.68382223	      7.37245378	      1.95006070	    -20.46772586	     11.86326869	      0.00000000	      0.00000000	      0.00000000	      0.00000000
      2.60000000	     68.68475989	      4.84107119	     -1.20726635	      0.55552804	      1.05834296	     -0.30534454	     -0.26823830	    -13.07606521	      0.83794674	    -63.08077348	    -18.26074624	     -3.21486027	      0.00000000	      1.73765337	     -5.68649973	      7.37663601	      1.95444114	    -20.47057494	     11.86276424	      0.00000000	      0.00000000	      0.00000000	      0.00000000
      2.61000000	     68.68633334	      4.84188394	     -1.20688376	      0.55552198	      1.05834519	     -0.30534286	     -0.27072685	    -13.07625972	      0.83745384	    -63.07774437	    -18.26012224	     -3.21533246	      0.00000000	      1.73676799	     -5.68967319	      7.38103115	      1.95885417	    -20.47276371	     11.86365617	      0.00000000	      0.00000000	      0.00000000	      0.00000000
      2.62000000	     68.68663859	      4.84227144	     -1.20676360	      0.55551687	      1.05834481	     -0.30533955	     -0.27152364	    -13.07612198	      0.83671046	    -63.07532128	    -18.25882766	     -3.21644244	      0.00000000	      1.73727649	     -5.69330935	      7.38557179	      1.96306979	    -20.47389178	     11.86507278	      0.00000000	      0.00000000	      0.00000000	      0.00000000
      2.63000000	     68.68569632	      4.84251091	     -1.20676216	      0.55551457	      1.05834168	     -0.30533431	     -0.27055532	    -13.07551428	      0.83574843	    -63.07382270	    -18.25726923	     -3.21812896	      0.00000000	      1.73920708	     -5.69734221	      7.39007296	      1.96672071	    -20.47393600	     11.86601120	      0.00000000	      0.00000000	      0.00000000	      0.00000000
      2.64000000	     68.68385388	      4.84279763	     -1.20661807	      0.55551452	      1.05833582	     -0.30532836	     -0.26807451	    -13.07458254	      0.83472676	    -63.07326860	    -18.25595920	     -3.22011809	      0.00000000	      1.74233090	     -5.70164110	      7.39428309	      1.96947278	    -20.47323043	     11.86557709	      0.00000000	      0.00000000	      0.00000000	      0.00000000
      2.65000000	     68.68165195	      4.84308753	     -1.20617018	      0.55551613	      1.05832870	     -0.30532335	     -0.26458876	    -13.07365423	      0.83375590	    -63.07329123	    -18.25533095	     -3.22201259	      0.00000000	      1.74622458	     -5.70592129	      7.39795607	      1.97119952	    -20.47228279	     11.86320280	      0.00000000	      0.00000000	      0.00000000	      0.00000000
      2.66000000	     68.67951830	      4.84332429	     -1.20552026	      0.55551909	      1.05832277	     -0.30531962	     -0.26080462	    -13.07297312	      0.83281252	    -63.07325753	    -18.25559984	     -3.22339068	      0.00000000	      1.75030596	     -5.70984061	      7.40091965	      1.97201212	    -20.47157040	     11.85878860	      0.00000000	      0.00000000	      0.00000000	      0.00000000
      2.67000000	     68.67760606	      4.84366223	     -1.20497741	      0.55552240	      1.05832011	     -0.30531634	     -0.25749792	    -13.07256919	      0.83186084	    -63.07257443	    -18.25671032	     -3.22389150	      0.00000000	      1.75389721	     -5.71318712	      7.40311976	      1.97214455	    -20.47142953	     11.85273814	      0.00000000	      0.00000000	      0.00000000	      0.00000000
      2.68000000	     68.67594366	      4.84429561	     -1.20487693	      0.55552498	      1.05832131	     -0.30531308	     -0.25528589	    -13.07238888	      0.83104495	    -63.07098608	    -18.25836326	     -3.22328862	      0.00000000	      1.75638549	     -5.71590753	      7.40463447	      1.97184844	    -20.47204476	     11.84588044	      0.00000000	      0.00000000	      0.00000000	      0.00000000
      2.69000000	     68.67469624	      4.84516177	     -1.20541486	      0.55552675	      1.05832486	     -0.30530992	     -0.25439001	    -13.07247437	      0.83070683	    -63.06866556	    -18.26010149	     -3.22155258	      0.00000000	      1.75740734	     -5.71801115	      7.40565545	      1.97137071	    -20.47347483	     11.83929399	      0.00000000	      0.00000000	      0.00000000	      0.00000000
